<?xml version="1.0" standalone="no"?>
<!DOCTYPE svg PUBLIC "-//W3C//DTD SVG 20010904//EN" "http://www.w3.org/TR/2001/REC-SVG-20010904/DTD/svg10.dtd">
<!-- Created using Krita: https://krita.org -->
<svg xmlns="http://www.w3.org/2000/svg" 
    xmlns:xlink="http://www.w3.org/1999/xlink"
    xmlns:krita="http://krita.org/namespaces/svg/krita"
    xmlns:sodipodi="http://sodipodi.sourceforge.net/DTD/sodipodi-0.dtd"
    width="307.2pt"
    height="307.2pt"
    viewBox="0 0 307.2 307.2">
<defs/>
<path id="shape0" transform="matrix(0.999999971671202 0 0 0.999999971671202 45.1199986547914 161.279990730271)" fill="#352b37" fill-rule="evenodd" stroke="#352b37" stroke-width="1.68" stroke-linecap="square" stroke-linejoin="bevel" d="M171.933 6.89828L184.08 0L194.88 31.2L144.96 60L46.56 56.16L6.72 27.36L0 0.480005L18.24 5.28L30.24 25.92L41.28 24.96L41.76 5.28L59.52 9.6L63.36 29.28L79.68 30.72L78.72 12.48L95.04 19.68L96.48 34.08L108.48 32.64L103.2 21.12L123.36 14.88L124.8 33.12L144.96 30.24L138.72 12.96L156.48 8.16L159.36 29.76L177.6 20.64Z" sodipodi:nodetypes="ccccccccccccccccccccccccccc"/><path id="shape0" transform="translate(53.8799994906155, 200.279998112409)" fill="#352b37" fill-rule="evenodd" stroke="#352b37" stroke-width="1.68" stroke-linecap="square" stroke-linejoin="bevel" d="M0 0L24.48 42.48L90.24 54.48L158.4 46.32L185.724 3.03794L141.6 34.56L36.96 31.44Z" sodipodi:nodetypes="cccccccc"/>
</svg>
