<?xml version="1.0" standalone="no"?>
<!DOCTYPE svg PUBLIC "-//W3C//DTD SVG 20010904//EN" "http://www.w3.org/TR/2001/REC-SVG-20010904/DTD/svg10.dtd">
<!-- Created using Krita: https://krita.org -->
<svg xmlns="http://www.w3.org/2000/svg" 
    xmlns:xlink="http://www.w3.org/1999/xlink"
    xmlns:krita="http://krita.org/namespaces/svg/krita"
    xmlns:sodipodi="http://sodipodi.sourceforge.net/DTD/sodipodi-0.dtd"
    width="307.2pt"
    height="307.2pt"
    viewBox="0 0 307.2 307.2">
<defs/>
<path id="shape0" transform="translate(47.0399981118145, 44.6399982081505)" fill="#352b37" fill-rule="evenodd" stroke="#352b37" stroke-width="1.68" stroke-linecap="square" stroke-linejoin="bevel" d="M6.24 97.44L0.48 69.6L45.12 64.8L40.32 78.72L58.08 87.84L81.6 79.2L78.72 65.76L60.48 49.92L46.56 60.48L0 63.84L20.16 17.28L67.2 1.92L141.6 0L191.04 24.96L195.36 63.84L149.28 58.08L128.16 42.24L106.56 61.92L116.16 79.2L144.96 81.6L151.68 65.28L195.36 69.6L183.84 98.4Z" sodipodi:nodetypes="cccccccccccccccccccccccc"/><path id="shape1" transform="translate(95.0351496238657, 103.350725215954)" fill="#352b37" fill-rule="evenodd" stroke="#352b37" stroke-width="1.68" stroke-linecap="square" stroke-linejoin="bevel" d="M4.75176 18.8373L0 8.9944L11.0309 0L20.8738 11.7097L11.7097 20.8738Z" sodipodi:nodetypes="cccccc"/><path id="shape2" transform="translate(166.141806217437, 94.695738375209)" fill="#352b37" fill-rule="evenodd" stroke="#352b37" stroke-width="1.68" stroke-linecap="square" stroke-linejoin="bevel" d="M9.50351 20.3647L0 10.352L11.54 0L28.1711 12.3885L20.0253 23.5891Z" sodipodi:nodetypes="cccccc"/>
</svg>
